<svg width="135" height="24" viewBox="0 0 135 24" fill="none" xmlns="http://www.w3.org/2000/svg">
<path d="M67.3896 15.6523C66.9941 16.126 66.4351 16.4946 65.7124 16.7583C64.9897 17.0171 64.189 17.1465 63.3101 17.1465C62.3872 17.1465 61.5767 16.9463 60.8784 16.5459C60.1851 16.1406 59.6479 15.5547 59.2671 14.7881C58.8911 14.0215 58.6982 13.1206 58.6885 12.0854V11.3604C58.6885 10.2959 58.8667 9.37549 59.2231 8.59912C59.5845 7.81787 60.1021 7.22217 60.7759 6.81201C61.4546 6.39697 62.248 6.18945 63.1562 6.18945C64.4209 6.18945 65.4097 6.49219 66.1226 7.09766C66.8354 7.69824 67.2578 8.57471 67.3896 9.72705H65.251C65.1533 9.1167 64.936 8.66992 64.5991 8.38672C64.2671 8.10352 63.8081 7.96191 63.2222 7.96191C62.4751 7.96191 61.9062 8.24268 61.5156 8.8042C61.125 9.36572 60.9272 10.2007 60.9224 11.3091V11.9902C60.9224 13.1084 61.1348 13.9531 61.5596 14.5244C61.9844 15.0957 62.6069 15.3813 63.4272 15.3813C64.2524 15.3813 64.8408 15.2056 65.1924 14.854V13.0156H63.1929V11.397H67.3896V15.6523ZM72.8535 11.1406L75.0728 6.33594H77.4751L73.9741 13.1328V17H71.7402V13.1328L68.2393 6.33594H70.6489L72.8535 11.1406ZM81.3203 6.33594L84.0596 14.0703L86.7842 6.33594H89.6699V17H87.4653V14.085L87.6851 9.05322L84.8066 17H83.2979L80.4268 9.06055L80.6465 14.085V17H78.4492V6.33594H81.3203ZM93.7861 13.2427V17H91.5889V6.33594H95.749C96.5498 6.33594 97.2529 6.48242 97.8584 6.77539C98.4688 7.06836 98.9375 7.48584 99.2646 8.02783C99.5918 8.56494 99.7554 9.17773 99.7554 9.86621C99.7554 10.9111 99.3965 11.7363 98.6787 12.3418C97.9658 12.9424 96.9771 13.2427 95.7124 13.2427H93.7861ZM93.7861 11.4629H95.749C96.3301 11.4629 96.772 11.3262 97.0747 11.0527C97.3823 10.7793 97.5361 10.3887 97.5361 9.88086C97.5361 9.3584 97.3823 8.93604 97.0747 8.61377C96.7671 8.2915 96.3423 8.12549 95.8003 8.11572H93.7861V11.4629ZM110.031 11.9097C110.031 12.9595 109.846 13.8799 109.475 14.6709C109.104 15.4619 108.571 16.0723 107.878 16.502C107.189 16.9316 106.398 17.1465 105.505 17.1465C104.621 17.1465 103.833 16.9341 103.139 16.5093C102.446 16.0845 101.909 15.479 101.528 14.6929C101.147 13.9019 100.954 12.9937 100.949 11.9683V11.4409C100.949 10.3911 101.137 9.46826 101.513 8.67236C101.894 7.87158 102.429 7.25879 103.117 6.83398C103.811 6.4043 104.602 6.18945 105.49 6.18945C106.379 6.18945 107.167 6.4043 107.856 6.83398C108.549 7.25879 109.084 7.87158 109.46 8.67236C109.841 9.46826 110.031 10.3887 110.031 11.4336V11.9097ZM107.805 11.4263C107.805 10.3081 107.604 9.4585 107.204 8.87744C106.804 8.29639 106.232 8.00586 105.49 8.00586C104.753 8.00586 104.184 8.29395 103.784 8.87012C103.383 9.44141 103.181 10.2812 103.176 11.3896V11.9097C103.176 12.9985 103.376 13.8433 103.776 14.4438C104.177 15.0444 104.753 15.3447 105.505 15.3447C106.242 15.3447 106.809 15.0566 107.204 14.4805C107.6 13.8994 107.8 13.0547 107.805 11.9463V11.4263ZM113.964 17H111.767V6.33594H113.964V17ZM124.68 17H122.482L118.205 9.9834V17H116.008V6.33594H118.205L122.49 13.3672V6.33594H124.68V17ZM134.406 8.11572H131.14V17H128.942V8.11572H125.72V6.33594H134.406V8.11572Z" fill="#EE4D64"/>
<path fill-rule="evenodd" clip-rule="evenodd" d="M42.2459 5.35477C41.7505 5.35477 41.2811 5.46801 40.8621 5.6699C40.7577 3.99982 39.3665 2.67298 37.6706 2.67298C37.1743 2.67298 36.7041 2.78659 36.2845 2.98921C36.1655 1.33333 34.7811 0.0221558 33.0954 0.0221558C31.3318 0.0221558 29.897 1.45695 29.897 3.22061V8.52232C29.897 9.02532 30.3048 9.43311 30.8078 9.43311C31.3108 9.43311 31.7186 9.02532 31.7186 8.52232V3.22061C31.7186 2.46137 32.3362 1.84374 33.0954 1.84374C33.8546 1.84374 34.4722 2.46137 34.4722 3.22061V17.8091V20.4599C34.4722 21.2192 33.8546 21.8368 33.0954 21.8368C32.3362 21.8368 31.7186 21.2192 31.7186 20.4599V15.1582C31.7186 14.6552 31.3108 14.2474 30.8078 14.2474H18.5235C18.0205 14.2474 17.6127 14.6552 17.6127 15.1582C17.6127 15.6612 18.0205 16.069 18.5235 16.069H29.897V20.4599C29.897 22.2236 31.3318 23.6584 33.0954 23.6584C34.7811 23.6584 36.1655 22.3472 36.2845 20.6913C36.7041 20.8939 37.1743 21.0075 37.6706 21.0075C39.3665 21.0075 40.7577 19.6806 40.8621 18.0106C41.2811 18.2125 41.7505 18.3258 42.2459 18.3258C44.0095 18.3258 45.4443 16.891 45.4443 15.1274V8.5531C45.4443 6.78951 44.0095 5.35477 42.2459 5.35477ZM39.0476 17.8091C39.0476 18.5683 38.4299 19.186 37.6707 19.186C36.9115 19.186 36.2938 18.5683 36.2938 17.8091V5.87143C36.2938 5.1122 36.9115 4.49456 37.6707 4.49456C38.4299 4.49456 39.0476 5.1122 39.0476 5.87143V17.8091ZM42.2459 16.5042C43.0051 16.5042 43.6228 15.8865 43.6228 15.1274V8.5531C43.6228 7.79399 43.0051 7.17635 42.2459 7.17635C41.4867 7.17635 40.8691 7.79399 40.8691 8.5531V15.1274C40.8691 15.8865 41.4867 16.5042 42.2459 16.5042Z" fill="#EE4D64"/>
<path fill-rule="evenodd" clip-rule="evenodd" d="M14.9576 14.2474C14.4546 14.2474 14.0468 14.6552 14.0468 15.1582V20.4599C14.0468 21.2192 13.4292 21.8368 12.67 21.8368C11.9107 21.8368 11.2931 21.2192 11.2931 20.4599V17.8091V5.87143V3.22061C11.2931 2.46137 11.9107 1.84374 12.67 1.84374C13.4292 1.84374 14.0468 2.46137 14.0468 3.22061V8.52232C14.0468 9.02532 14.4546 9.43311 14.9576 9.43311H27.242C27.745 9.43311 28.1528 9.02532 28.1528 8.52232C28.1528 8.01932 27.745 7.61153 27.242 7.61153H15.8684V3.22061C15.8684 1.45695 14.4336 0.0221558 12.67 0.0221558C10.9842 0.0221558 9.59987 1.33333 9.4808 2.98921C9.06123 2.78659 8.59096 2.67298 8.09464 2.67298C6.39875 2.67298 5.00761 3.99994 4.90317 5.6699C4.4842 5.46801 4.01478 5.35477 3.51937 5.35477C1.75572 5.35477 0.320923 6.78957 0.320923 8.55322V15.1274C0.320923 16.891 1.75572 18.3257 3.51937 18.3257C4.01478 18.3257 4.4842 18.2125 4.90317 18.0106C5.00761 19.6806 6.39875 21.0075 8.09464 21.0075C8.59096 21.0075 9.06117 20.8939 9.4808 20.6913C9.59987 22.3471 10.9842 23.6583 12.67 23.6583C14.4336 23.6583 15.8684 22.2235 15.8684 20.4599V15.1581C15.8684 14.6552 15.4607 14.2474 14.9576 14.2474ZM3.5195 16.5042C2.76032 16.5042 2.14262 15.8865 2.14262 15.1274V8.55322C2.14262 7.79399 2.76026 7.17635 3.5195 7.17635C4.27867 7.17635 4.89631 7.79399 4.89631 8.55322V15.1274C4.89625 15.8865 4.27861 16.5042 3.5195 16.5042ZM6.71783 17.8091C6.71783 18.5683 7.33552 19.186 8.0947 19.186C8.85393 19.186 9.47157 18.5683 9.47157 17.8091V5.87143C9.47157 5.1122 8.85393 4.49456 8.0947 4.49456C7.33546 4.49456 6.71783 5.1122 6.71783 5.87143V17.8091Z" fill="#EE4D64"/>
<path d="M14.0443 11.8935V12.1988C14.0443 12.7018 14.452 13.1096 14.955 13.1096C15.458 13.1096 15.8658 12.7018 15.8658 12.1988V11.8935C15.8658 11.3905 15.458 10.9827 14.955 10.9827C14.452 10.9827 14.0443 11.3905 14.0443 11.8935Z" fill="#EE4D64"/>
<path d="M31.7187 11.7922V11.4868C31.7187 10.9838 31.3108 10.576 30.8079 10.576C30.3048 10.576 29.8971 10.9838 29.8971 11.4868V11.7922C29.8971 12.2952 30.3048 12.703 30.8079 12.703C31.3109 12.703 31.7187 12.2952 31.7187 11.7922Z" fill="#EE4D64"/>
</svg>
