<svg width="153" height="100" viewBox="0 0 153 100" fill="none" xmlns="http://www.w3.org/2000/svg">
<path d="M18.6921 90.0154C17.9048 90.9583 16.7918 91.6921 15.3532 92.217C13.9146 92.7322 12.3205 92.9898 10.5708 92.9898C8.73367 92.9898 7.1201 92.5913 5.7301 91.7942C4.34982 90.9874 3.28059 89.821 2.52241 88.2949C1.77395 86.7688 1.39 84.9754 1.37056 82.9147V81.4713C1.37056 79.3522 1.72535 77.52 2.43493 75.9744C3.15423 74.4192 4.18458 73.2333 5.52598 72.4168C6.8771 71.5906 8.45664 71.1775 10.2646 71.1775C12.7822 71.1775 14.7505 71.7801 16.1697 72.9855C17.5888 74.1811 18.4296 75.9258 18.6921 78.2198H14.4346C14.2402 77.0048 13.8077 76.1154 13.137 75.5516C12.476 74.9878 11.5623 74.7059 10.3958 74.7059C8.90863 74.7059 7.77622 75.2649 6.9986 76.3827C6.22098 77.5005 5.82731 79.1627 5.81759 81.3692V82.7252C5.81759 84.9511 6.24042 86.6327 7.08608 87.77C7.93175 88.9073 9.17108 89.4759 10.8041 89.4759C12.4468 89.4759 13.6181 89.126 14.318 88.4261V84.7664H10.3375V81.5442H18.6921V90.0154ZM29.5691 81.0338L33.987 71.4691H38.7693L31.7999 84.9997V92.6982H27.3529V84.9997L20.3834 71.4691H25.1804L29.5691 81.0338ZM46.424 71.4691L51.8771 86.866L57.301 71.4691H63.0457V92.6982H58.657V86.8952L59.0944 76.8784L53.3643 92.6982H50.3608L44.6452 76.893L45.0826 86.8952V92.6982H40.7085V71.4691H46.424ZM71.2399 85.2184V92.6982H66.8658V71.4691H75.1475C76.7416 71.4691 78.1413 71.7607 79.3466 72.3439C80.5617 72.9271 81.4948 73.7582 82.1461 74.8372C82.7973 75.9064 83.123 77.1263 83.123 78.4969C83.123 80.577 82.4085 82.2197 80.9796 83.425C79.5605 84.6206 77.5921 85.2184 75.0746 85.2184H71.2399ZM71.2399 81.6754H75.1475C76.3042 81.6754 77.1839 81.4032 77.7865 80.8589C78.3989 80.3145 78.7051 79.5369 78.7051 78.526C78.7051 77.4859 78.3989 76.6451 77.7865 76.0036C77.1741 75.3621 76.3285 75.0316 75.2495 75.0121H71.2399V81.6754ZM103.579 82.5648C103.579 84.6547 103.21 86.4869 102.471 88.0616C101.732 89.6363 100.673 90.8513 99.2926 91.7067C97.9221 92.5621 96.3474 92.9898 94.5686 92.9898C92.8092 92.9898 91.2394 92.567 89.8591 91.7213C88.4788 90.8756 87.4096 89.6703 86.6514 88.1053C85.8932 86.5307 85.5093 84.7227 85.4996 82.6814V81.6316C85.4996 79.5418 85.8738 77.7047 86.6223 76.1202C87.3804 74.5261 88.4448 73.3062 89.8154 72.4606C91.1956 71.6052 92.7703 71.1775 94.5394 71.1775C96.3085 71.1775 97.8783 71.6052 99.2489 72.4606C100.629 73.3062 101.694 74.5261 102.442 76.1202C103.2 77.7047 103.579 79.5369 103.579 81.6171V82.5648ZM99.1468 81.6025C99.1468 79.3765 98.7483 77.6852 97.9512 76.5285C97.1542 75.3718 96.0169 74.7934 94.5394 74.7934C93.0717 74.7934 91.9392 75.3669 91.1422 76.5139C90.3451 77.6512 89.9417 79.3231 89.932 81.5296V82.5648C89.932 84.7324 90.3305 86.414 91.1276 87.6096C91.9247 88.8052 93.0717 89.403 94.5686 89.403C96.0363 89.403 97.1639 88.8295 97.9512 87.6825C98.7386 86.5258 99.1371 84.8442 99.1468 82.6377V81.6025ZM111.409 92.6982H107.035V71.4691H111.409V92.6982ZM132.74 92.6982H128.366L119.851 78.7301V92.6982H115.477V71.4691H119.851L128.381 85.4663V71.4691H132.74V92.6982ZM152.103 75.0121H145.6V92.6982H141.226V75.0121H134.811V71.4691H152.103V75.0121Z" fill="#EE4D64"/>
<path fill-rule="evenodd" clip-rule="evenodd" d="M119.293 11.8251C118.199 11.8251 117.162 12.0752 116.237 12.521C116.007 8.83294 112.934 5.90284 109.189 5.90284C108.093 5.90284 107.055 6.15372 106.128 6.60117C105.865 2.94444 102.808 0.0489349 99.0856 0.0489349C95.191 0.0489349 92.0225 3.21745 92.0225 7.11218V18.8201C92.0225 19.9309 92.9231 20.8314 94.0339 20.8314C95.1446 20.8314 96.0452 19.9309 96.0452 18.8201V7.11218C96.0452 5.43554 97.4091 4.07159 99.0856 4.07159C100.762 4.07159 102.126 5.43554 102.126 7.11218V39.3284V45.1823C102.126 46.859 100.762 48.2229 99.0856 48.2229C97.4091 48.2229 96.0452 46.859 96.0452 45.1823V33.4744C96.0452 32.3636 95.1446 31.4631 94.0339 31.4631H66.906C65.7952 31.4631 64.8947 32.3636 64.8947 33.4744C64.8947 34.5852 65.7952 35.4857 66.906 35.4857H92.0225V45.1823C92.0225 49.0771 95.191 52.2456 99.0856 52.2456C102.808 52.2456 105.866 49.3501 106.128 45.6933C107.055 46.1408 108.093 46.3917 109.189 46.3917C112.934 46.3917 116.007 43.4613 116.237 39.7735C117.162 40.2193 118.199 40.4694 119.293 40.4694C123.188 40.4694 126.356 37.3009 126.356 33.4063V18.8881C126.356 14.9935 123.188 11.8251 119.293 11.8251ZM112.23 39.3284C112.23 41.0051 110.866 42.369 109.189 42.369C107.513 42.369 106.149 41.0051 106.149 39.3284V12.9661C106.149 11.2894 107.513 9.92549 109.189 9.92549C110.866 9.92549 112.23 11.2894 112.23 12.9661V39.3284ZM119.293 36.4467C120.97 36.4467 122.334 35.0828 122.334 33.4063V18.8881C122.334 17.2117 120.97 15.8478 119.293 15.8478C117.617 15.8478 116.253 17.2117 116.253 18.8881V33.4063C116.253 35.0828 117.617 36.4467 119.293 36.4467Z" fill="#EE4D64"/>
<path fill-rule="evenodd" clip-rule="evenodd" d="M59.0314 31.4631C57.9206 31.4631 57.0201 32.3636 57.0201 33.4744V45.1823C57.0201 46.859 55.6561 48.2229 53.9795 48.2229C52.3028 48.2229 50.9389 46.859 50.9389 45.1823V39.3284V12.9661V7.11218C50.9389 5.43554 52.3028 4.07159 53.9795 4.07159C55.6561 4.07159 57.0201 5.43554 57.0201 7.11218V18.8201C57.0201 19.9309 57.9206 20.8314 59.0314 20.8314H86.1594C87.2702 20.8314 88.1707 19.9309 88.1707 18.8201C88.1707 17.7093 87.2702 16.8088 86.1594 16.8088H61.0427V7.11218C61.0427 3.21745 57.8742 0.0489349 53.9795 0.0489349C50.2568 0.0489349 47.1997 2.94444 46.9367 6.60117C46.0102 6.15372 44.9717 5.90284 43.8756 5.90284C40.1305 5.90284 37.0584 8.83321 36.8278 12.521C35.9026 12.0752 34.866 11.8251 33.7719 11.8251C29.8772 11.8251 26.7087 14.9936 26.7087 18.8884V33.4063C26.7087 37.3009 29.8772 40.4692 33.7719 40.4692C34.866 40.4692 35.9026 40.2192 36.8278 39.7733C37.0584 43.4614 40.1305 46.3915 43.8756 46.3915C44.9717 46.3915 46.01 46.1407 46.9367 45.6932C47.1997 49.3499 50.2568 52.2454 53.9795 52.2454C57.8742 52.2454 61.0427 49.0769 61.0427 45.1822V33.4743C61.0427 32.3635 60.1423 31.4631 59.0314 31.4631ZM33.7722 36.4467C32.0957 36.4467 30.7316 35.0828 30.7316 33.4064V18.8884C30.7316 17.2117 32.0955 15.8478 33.7722 15.8478C35.4487 15.8478 36.8126 17.2117 36.8126 18.8884V33.4063C36.8125 35.0828 35.4486 36.4467 33.7722 36.4467ZM40.8352 39.3284C40.8352 41.0051 42.1993 42.369 43.8758 42.369C45.5524 42.369 46.9164 41.0051 46.9164 39.3284V12.9661C46.9164 11.2894 45.5524 9.92549 43.8758 9.92549C42.1991 9.92549 40.8352 11.2894 40.8352 12.9661V39.3284Z" fill="#EE4D64"/>
<path d="M57.0143 26.2647V26.9391C57.0143 28.0499 57.9148 28.9504 59.0256 28.9504C60.1364 28.9504 61.0369 28.0499 61.0369 26.9391V26.2647C61.0369 25.1539 60.1364 24.2534 59.0256 24.2534C57.9148 24.2534 57.0143 25.1539 57.0143 26.2647Z" fill="#EE4D64"/>
<path d="M96.0453 26.0411V25.3667C96.0453 24.2559 95.1446 23.3554 94.034 23.3554C92.9231 23.3554 92.0227 24.2559 92.0227 25.3667V26.0411C92.0227 27.1519 92.9231 28.0524 94.034 28.0524C95.1448 28.0524 96.0453 27.1519 96.0453 26.0411Z" fill="#EE4D64"/>
</svg>
